<mxfile host="Electron" agent="Mozilla/5.0 (Macintosh; Intel Mac OS X 10_15_7) AppleWebKit/537.36 (KHTML, like Gecko) draw.io/26.0.7 Chrome/128.0.6613.186 Electron/32.2.5 Safari/537.36" version="26.0.7">
  <diagram name="第 1 页" id="oBL71c8dKY334Ne-MNiF">
    <mxGraphModel dx="783" dy="605" grid="1" gridSize="10" guides="1" tooltips="1" connect="1" arrows="1" fold="1" page="1" pageScale="1" pageWidth="827" pageHeight="1169" math="0" shadow="0">
      <root>
        <mxCell id="0" />
        <mxCell id="1" parent="0" />
        <mxCell id="zhw2uIiEPXpF_XwNuZqw-8" value="" style="rounded=0;whiteSpace=wrap;html=1;fillColor=#ffe6cc;strokeColor=#d79b00;" vertex="1" parent="1">
          <mxGeometry x="290" y="330" width="220" height="140" as="geometry" />
        </mxCell>
        <mxCell id="zhw2uIiEPXpF_XwNuZqw-1" value="&lt;span style=&quot;font-family: Lato, -apple-system, &amp;quot;system-ui&amp;quot;, &amp;quot;Segoe UI&amp;quot;, &amp;quot;Droid Sans&amp;quot;, &amp;quot;Helvetica Neue&amp;quot;, &amp;quot;PingFang SC&amp;quot;, &amp;quot;Hiragino Sans GB&amp;quot;, &amp;quot;Droid Sans Fallback&amp;quot;, &amp;quot;Microsoft YaHei&amp;quot;, sans-serif; font-size: 17px; text-align: start; background-color: rgb(255, 255, 255);&quot;&gt;I hava an orange&lt;/span&gt;" style="rounded=1;whiteSpace=wrap;html=1;" vertex="1" parent="1">
          <mxGeometry x="340" y="340" width="160" height="40" as="geometry" />
        </mxCell>
        <mxCell id="zhw2uIiEPXpF_XwNuZqw-2" value="&lt;span style=&quot;font-family: Lato, -apple-system, &amp;quot;system-ui&amp;quot;, &amp;quot;Segoe UI&amp;quot;, &amp;quot;Droid Sans&amp;quot;, &amp;quot;Helvetica Neue&amp;quot;, &amp;quot;PingFang SC&amp;quot;, &amp;quot;Hiragino Sans GB&amp;quot;, &amp;quot;Droid Sans Fallback&amp;quot;, &amp;quot;Microsoft YaHei&amp;quot;, sans-serif; font-size: 17px; text-align: start; background-color: rgb(255, 255, 255);&quot;&gt;I hava a banana&lt;/span&gt;" style="rounded=1;whiteSpace=wrap;html=1;" vertex="1" parent="1">
          <mxGeometry x="340" y="380" width="160" height="40" as="geometry" />
        </mxCell>
        <mxCell id="zhw2uIiEPXpF_XwNuZqw-3" value="&lt;span style=&quot;font-family: Lato, -apple-system, &amp;quot;system-ui&amp;quot;, &amp;quot;Segoe UI&amp;quot;, &amp;quot;Droid Sans&amp;quot;, &amp;quot;Helvetica Neue&amp;quot;, &amp;quot;PingFang SC&amp;quot;, &amp;quot;Hiragino Sans GB&amp;quot;, &amp;quot;Droid Sans Fallback&amp;quot;, &amp;quot;Microsoft YaHei&amp;quot;, sans-serif; font-size: 17px; text-align: start; background-color: rgb(255, 255, 255);&quot;&gt;I hava an apple&lt;/span&gt;" style="rounded=1;whiteSpace=wrap;html=1;" vertex="1" parent="1">
          <mxGeometry x="340" y="420" width="160" height="40" as="geometry" />
        </mxCell>
        <mxCell id="zhw2uIiEPXpF_XwNuZqw-4" value="0" style="rounded=1;whiteSpace=wrap;html=1;" vertex="1" parent="1">
          <mxGeometry x="300" y="340" width="40" height="40" as="geometry" />
        </mxCell>
        <mxCell id="zhw2uIiEPXpF_XwNuZqw-5" value="1" style="rounded=1;whiteSpace=wrap;html=1;" vertex="1" parent="1">
          <mxGeometry x="300" y="380" width="40" height="40" as="geometry" />
        </mxCell>
        <mxCell id="zhw2uIiEPXpF_XwNuZqw-6" value="2" style="rounded=1;whiteSpace=wrap;html=1;" vertex="1" parent="1">
          <mxGeometry x="300" y="420" width="40" height="40" as="geometry" />
        </mxCell>
        <mxCell id="zhw2uIiEPXpF_XwNuZqw-9" value="Store Fields" style="text;html=1;align=center;verticalAlign=middle;whiteSpace=wrap;rounded=0;" vertex="1" parent="1">
          <mxGeometry x="360" y="300" width="90" height="30" as="geometry" />
        </mxCell>
      </root>
    </mxGraphModel>
  </diagram>
</mxfile>
